PathFileType	4	(X/Y/Z)	../Python\running\Running15\task.trc
DataRate	CameraRate	NumFrames	NumMarkers	Units	OrigDataRate	OrigDataStartFrame	OrigNumFrames
200.000000	200.000000	5	30	mm	200.000000	53	215
Frame#	Time	C7			RBAK			CLAV			STRN			RASI			LASI			RTH1			RTH2			RTH3			RTB2			RHEE			RD5M			RTOE			LTH3			LTB2			LTB3			LHEE			LTOE			LD5M			RTB3			RTB1			T10			PE01			LPSI			PE03			PE02			LTH2			RPSI			LTH1			LTB1			
		X1	Y1	Z1	X2	Y2	Z2	X3	Y3	Z3	X4	Y4	Z4	X5	Y5	Z5	X6	Y6	Z6	X7	Y7	Z7	X8	Y8	Z8	X9	Y9	Z9	X10	Y10	Z10	X11	Y11	Z11	X12	Y12	Z12	X13	Y13	Z13	X14	Y14	Z14	X15	Y15	Z15	X16	Y16	Z16	X17	Y17	Z17	X18	Y18	Z18	X19	Y19	Z19	X20	Y20	Z20	X21	Y21	Z21	X22	Y22	Z22	X23	Y23	Z23	X24	Y24	Z24	X25	Y25	Z25	X26	Y26	Z26	X27	Y27	Z27	X28	Y28	Z28	X29	Y29	Z29	X30	Y30	Z30	

54	0.265	-1089.533935546875	1311.64111328125	142.1998901367188	-1118.87841796875	1246.3203125	272.9229125976564	-976.3217773437505	1205.492919921875	135.8329315185547	-949.6205444335942	1013.866271972657	163.6252593994141	-1022.057922363282	814.5094604492192	307.5933532714845	-1009.196838378907	838.6816406250005	85.03589630126956	-1091.422241210938	522.0683593750002	345.0560913085939	-1068.5751953125	446.1061706542971	335.5900268554689	-1045.356079101563	502.2351074218752	344.5198669433595	-1246.825439453125	321.1931762695314	294.5852050781251	-1456.89404296875	250.5057678222657	169.6498107910157	-1398.953491210938	151.0979003906251	284.3777160644532	-1361.377807617188	119.292465209961	253.0963134765626	-952.719604492188	575.1440429687502	52.20631790161136	-1030.062377929688	199.0203247070314	106.1920394897462	-985.1405639648442	218.6079406738282	109.0085220336915	-1105.91162109375	32.22859573364259	173.9974975585938	-914.493530273438	28.67489814758302	191.2867126464844	-950.828735351563	13.55352878570557	132.7871398925782	-1260.152709960938	275.2960205078126	277.1390075683595	-1188.159545898438	299.9251403808595	298.3457031250001	-1166.60107421875	1030.509643554688	204.223602294922	-1193.573852539063	919.7529907226567	211.7181396484376	-1204.429321289063	891.657348632813	162.327865600586	-1219.036010742188	870.630249023438	173.6865386962891	-1221.630126953125	860.3184204101567	222.9922180175782	-1011.294067382813	524.1320800781252	62.72135543823245	-1204.040283203125	883.253051757813	249.5378570556642	-1001.723327636719	581.8796386718752	43.86406707763673	-1007.062866210938	273.1623840332032	87.80921936035159	
55	0.27	-1074.59326171875	1307.974487304688	141.8817596435547	-1105.462768554688	1242.364135742188	272.3307189941407	-961.1240234375005	1200.7021484375	136.902328491211	-935.007202148438	1008.432922363282	164.5223083496094	-1006.901062011719	809.934204101563	305.8903808593751	-996.567016601563	835.513549804688	83.23020935058597	-1069.220581054688	518.5647583007815	345.3555297851564	-1044.507568359375	443.2369689941409	335.7070922851564	-1022.621276855469	499.9295654296877	344.5249023437501	-1220.41650390625	317.4038085937501	297.1041870117189	-1432.36474609375	245.9537353515626	175.0054931640626	-1370.687377929688	147.0591735839844	288.1866760253907	-1333.0361328125	115.9417266845704	256.0103149414064	-943.1726074218755	571.0525512695315	50.99701690673831	-1025.06494140625	197.581268310547	105.9393386840821	-979.8352050781255	216.1117553710939	109.3856964111329	-1106.011596679688	32.05604934692384	174.4407043457032	-914.442504882813	28.73727416992189	191.2584228515626	-950.8619995117192	13.74245643615723	132.7950134277344	-1233.661254882813	271.5948486328126	279.2650451660157	-1161.334228515625	296.5044555664064	299.2991333007814	-1152.011474609375	1026.75048828125	204.5578155517579	-1179.5927734375	916.1786499023442	213.7658233642579	-1191.0185546875	888.8740844726567	164.0609588623047	-1205.632690429688	867.578979492188	175.4672393798829	-1207.364990234375	856.5061035156255	224.6950988769532	-1002.606201171875	521.1660766601565	62.54029846191409	-1189.447265625	878.944213867188	251.3724975585939	-991.935913085938	578.5606079101565	42.9908905029297	-1000.108093261719	271.1059875488282	87.68341064453128	
56	0.275	-1059.648315429688	1304.57568359375	141.6060333251954	-1092.043090820313	1238.71630859375	271.7087707519532	-946.0009765625005	1196.221923828125	138.0113067626954	-920.4529418945317	1003.289611816407	165.3988952636719	-991.7775268554692	805.6469116210942	304.1503295898439	-984.0288696289067	832.4501342773442	81.38727569580081	-1046.90625	515.540222167969	345.5433654785157	-1020.281555175782	440.9173889160159	335.6541137695314	-999.7713012695317	498.1634216308596	344.3838500976564	-1193.78173828125	313.8142089843751	299.535369873047	-1407.44677734375	241.0941925048829	180.4363861083985	-1341.92431640625	142.8067321777344	291.9829406738282	-1304.186645507813	112.4500808715821	258.8867187500001	-933.6394653320317	567.5297851562502	49.75545120239261	-1020.120971679688	196.2410278320314	105.6325683593751	-974.640258789063	213.7427673339845	109.7070083618165	-1106.002685546875	32.22633743286134	174.7914428710938	-914.3829956054692	28.71709060668947	191.242416381836	-950.887329101563	13.82954120635987	132.8007049560547	-1206.894409179688	268.0610656738282	281.339080810547	-1134.271240234375	293.4051818847657	300.1312255859376	-1137.464477539063	1023.289794921875	204.8748016357423	-1165.540283203125	912.9335327148442	215.7684631347657	-1177.618041992188	886.3510742187505	165.8200836181641	-1192.232543945313	864.8181152343755	177.3157653808594	-1193.088256835938	853.0908203125005	226.477020263672	-993.6284179687505	518.4820556640627	62.27089691162112	-1174.838745117188	875.0681762695317	253.2088012695314	-982.1663208007817	575.5654296875002	42.11819458007814	-993.2761230468755	269.116424560547	87.48680114746097	
57	0.28	-1044.704467773438	1301.46923828125	141.3740997314454	-1078.616943359375	1235.39990234375	271.0550842285157	-930.9512329101567	1192.09765625	139.1551055908204	-905.9511108398442	998.4972534179692	166.250717163086	-976.6826782226567	801.6974487304692	302.3943481445314	-971.5571289062505	829.5048217773442	79.52374267578128	-1024.51171875	513.0296020507815	345.6068725585939	-995.9454956054692	439.1811523437502	335.4179077148439	-976.8474121093755	496.9616394042971	344.0888977050782	-1166.95068359375	310.4564819335939	301.8540344238282	-1382.119873046875	235.9117126464845	185.8754272460938	-1312.668090820313	138.4041290283204	295.768768310547	-1274.83251953125	108.8645782470704	261.7635803222657	-923.942016601563	564.563415527344	48.56120300292972	-1015.294982910157	194.960906982422	105.2883224487305	-969.6127319335942	211.4634857177736	109.9756011962891	-1105.915893554688	32.65061569213869	175.0552368164063	-914.3274536132817	28.64064216613771	191.2431030273438	-950.907592773438	13.83409500122071	132.7975769042969	-1179.869873046875	264.7197265625001	283.3368225097657	-1107.015747070313	290.668426513672	300.8498840332032	-1122.951049804688	1020.148010253907	205.1588134765626	-1151.413452148438	910.0382690429692	217.6791229248048	-1164.206787109375	884.0922851562505	167.5681610107422	-1178.814086914063	862.3521118164067	179.1937713623047	-1178.791625976563	850.091918945313	228.302703857422	-984.2044067382817	516.0391845703127	61.87102127075198	-1160.21435546875	871.6555175781255	255.0046997070314	-972.269165039063	572.8772583007815	41.26258087158205	-986.6333618164067	267.1600646972657	87.22048187255862	
58	0.285	-1029.767944335938	1298.675537109375	141.1869354248047	-1065.18310546875	1232.431640625	270.3678588867189	-915.9711914062505	1188.368896484375	140.3295898437501	-891.4931640625005	994.1115112304692	167.0750274658204	-961.6115722656255	798.1308593750005	300.6459045410157	-959.1238403320317	826.6909179687505	77.65877532958987	-1002.073303222657	511.0616760253909	345.5340881347657	-971.552856445313	438.0561218261721	334.9859924316407	-953.8961791992192	496.343200683594	343.6330871582032	-1139.956176757813	307.3608398437501	304.0376281738282	-1356.36474609375	230.3959350585939	191.2599639892579	-1282.9228515625	133.9148254394532	299.5437011718751	-1244.974609375	105.234001159668	264.6714172363282	-913.9441528320317	562.092712402344	47.49438858032228	-1010.650024414063	193.7084808349611	104.9279251098633	-964.808227539063	209.2445373535157	110.1981201171876	-1105.782104492188	33.25164794921876	175.246322631836	-914.2870483398442	28.53196525573732	191.2589263916016	-950.930786132813	13.77899551391602	132.7814483642579	-1152.608032226563	261.5949096679689	285.2379150390626	-1079.616333007813	288.3324584960939	301.4658813476564	-1108.460571289063	1017.339050292969	205.3932952880861	-1137.212646484375	907.5073852539067	219.4533843994142	-1150.763427734375	882.098999023438	169.2670288085938	-1165.355224609375	860.1816406250005	181.0596618652344	-1164.468383789063	847.5204467773442	230.1327362060548	-974.2532348632817	513.7828369140627	61.31408309936526	-1145.574829101563	868.723999023438	256.7178344726564	-962.1365356445317	570.458923339844	40.44215011596681	-980.2507934570317	265.2095642089845	86.89228057861331	
